<svg xmlns="http://www.w3.org/2000/svg" viewBox="0 0 66.74854 21.71924"><path d="M0 10.91992v-.06006C0 4.89014 4.5 0 10.94971 0c3.95996 0 6.32959 1.32031 8.27979 3.24023l-2.93994 3.38965c-1.62012-1.46973-3.27002-2.36963-5.37012-2.36963-3.53955 0-6.08936 2.93994-6.08936 6.53955v.06006c0 3.59961 2.48975 6.59961 6.08936 6.59961 2.3999 0 3.87012-.95996 5.52002-2.45996l2.93994 2.97021c-2.16016 2.30957-4.56006 3.74951-8.60986 3.74951C4.58984 21.71924 0 16.94971 0 10.91992zM24.56982.36035h15.98926v4.19971H29.18945v4.46973h10.01953v4.19971H29.18945v8.12988h-4.61963V.36035zM45.74951.36035H50.729l5.52002 8.87939L61.76855.36035h4.97998v20.99902h-4.58984V7.6499l-5.90967 8.96973h-.12012l-5.8496-8.87988v13.61963h-4.52979V.36035z"/></svg>